<svg width="100" height="48" viewBox="0 0 241 255" fill="none" xmlns="http://www.w3.org/2000/svg">
<ellipse cx="120.5" cy="126.574" rx="120.5" ry="126.574" fill="#340808"/>
<path d="M48.2026 44.1852C69.077 24.6916 119.626 3.8356 119.626 3.8356C119.626 3.8356 111.952 47.6438 119.626 75.0407C124.967 94.1095 134.791 103.77 142.584 122.511C155.124 152.67 181.366 171.026 166.817 200.836C157.369 220.194 119.626 243.559 119.626 243.559C119.626 243.559 68.8658 215.861 48.2026 192.925C22.6263 164.534 12.7355 144.717 15.0417 112.226C17.0101 84.4932 23.4419 67.3078 48.2026 44.1852Z" stroke="#6A3434"/>
<path d="M42.2534 37.7198C59.4602 21.7692 99.5755 6.28586 99.5755 6.28586C99.5755 6.28586 91.0914 44.3325 95.3804 68.8256C98.3657 85.8733 111.417 80.2407 116.307 97.1381C124.178 124.33 154.462 140.403 141.512 165.769C133.104 182.241 124.713 208.139 124.713 208.139C124.713 208.139 48.0348 189.662 33.4902 168.358C15.4874 141.989 9.04616 124.028 12.7346 95.6204C15.8827 71.3734 21.8431 56.64 42.2534 37.7198Z" stroke="#B56D6D"/>
<path d="M197.871 56.5518C186.767 35.0272 158.008 10.7678 158.008 10.7678C158.008 10.7678 159.491 57.4295 152.957 86.0671C148.409 105.999 139.132 97.396 133.141 116.875C123.5 148.221 98.1174 163.065 104.706 195.223C108.985 216.106 112.003 248.244 112.003 248.244C112.003 248.244 173.332 237.198 187.32 213.844C204.633 184.936 211.956 164.41 212.881 129.95C213.67 100.538 211.042 82.0837 197.871 56.5518Z" stroke="#9A0D0D"/>
<path d="M198.97 45.7991C180.797 25.5259 136.79 3.8356 136.79 3.8356C136.79 3.8356 143.47 49.3961 136.79 77.8889C132.14 97.7204 123.588 107.767 116.803 127.258C105.886 158.623 83.0397 177.714 95.7064 208.716C103.932 228.848 136.79 253.148 136.79 253.148C136.79 253.148 180.981 224.342 198.97 200.488C221.237 170.962 229.848 150.352 227.84 116.561C226.126 87.7195 220.527 69.8467 198.97 45.7991Z" stroke="#D25252"/>
</svg>
