<svg width="320" height="240" viewBox="0 0 584 343" fill="none" xmlns="http://www.w3.org/2000/svg">
<path d="M364.249 170.776C362.883 170.763 361.616 170.558 360.447 170.163C359.299 169.746 358.302 169.171 357.456 168.437C356.609 167.703 355.967 166.854 355.529 165.89C355.361 165.547 355.354 165.237 355.506 164.962C355.68 164.665 355.959 164.465 356.344 164.362C356.643 164.279 356.931 164.314 357.207 164.466C357.504 164.619 357.726 164.845 357.872 165.145C358.186 165.767 358.65 166.326 359.264 166.823C359.877 167.32 360.61 167.711 361.46 167.997C362.311 168.261 363.248 168.398 364.272 168.409C365.403 168.42 366.407 168.248 367.285 167.894C368.164 167.519 368.852 166.982 369.35 166.283C369.869 165.563 370.133 164.69 370.143 163.666C370.156 162.365 369.687 161.241 368.737 160.292C367.786 159.344 366.288 158.732 364.243 158.456C361.75 158.132 359.806 157.345 358.41 156.094C357.014 154.821 356.326 153.278 356.344 151.465C356.357 150.164 356.709 149.037 357.401 148.084C358.115 147.131 359.082 146.404 360.303 145.904C361.524 145.383 362.924 145.13 364.503 145.146C365.676 145.157 366.741 145.36 367.697 145.753C368.653 146.126 369.48 146.624 370.178 147.25C370.897 147.855 371.478 148.522 371.918 149.251C372.128 149.595 372.189 149.926 372.1 150.245C372.033 150.565 371.85 150.808 371.549 150.976C371.228 151.122 370.897 151.14 370.557 151.03C370.238 150.92 369.994 150.715 369.827 150.415C369.512 149.921 369.111 149.458 368.624 149.027C368.16 148.574 367.587 148.216 366.907 147.954C366.227 147.691 365.407 147.544 364.447 147.513C362.762 147.497 361.404 147.846 360.373 148.561C359.342 149.255 358.819 150.284 358.806 151.65C358.799 152.375 358.984 153.049 359.362 153.671C359.74 154.272 360.364 154.801 361.234 155.258C362.126 155.693 363.317 156.025 364.809 156.253C367.471 156.664 369.436 157.505 370.704 158.776C371.993 160.026 372.628 161.654 372.608 163.659C372.596 164.811 372.373 165.833 371.937 166.724C371.523 167.616 370.929 168.368 370.155 168.979C369.402 169.569 368.512 170.019 367.485 170.328C366.48 170.639 365.401 170.788 364.249 170.776ZM384.669 170.819C383.026 170.802 381.558 170.404 380.264 169.623C378.971 168.821 377.947 167.744 377.192 166.392C376.459 165.041 376.101 163.523 376.117 161.838C376.134 160.131 376.533 158.61 377.315 157.273C378.117 155.937 379.194 154.892 380.546 154.137C381.898 153.361 383.416 152.981 385.101 152.998C386.787 153.015 388.287 153.424 389.601 154.227C390.938 155.008 391.983 156.074 392.738 157.426C393.514 158.778 393.904 160.307 393.908 162.014L392.909 162.772C392.894 164.308 392.517 165.691 391.78 166.921C391.064 168.13 390.084 169.091 388.839 169.804C387.616 170.496 386.226 170.834 384.669 170.819ZM384.947 168.581C386.184 168.594 387.286 168.317 388.251 167.75C389.238 167.184 390.014 166.402 390.579 165.405C391.165 164.387 391.464 163.248 391.477 161.99C391.489 160.71 391.213 159.566 390.647 158.557C390.102 157.549 389.342 156.752 388.366 156.167C387.412 155.56 386.316 155.25 385.079 155.238C383.863 155.226 382.762 155.514 381.774 156.101C380.787 156.668 380.001 157.449 379.415 158.446C378.829 159.443 378.53 160.581 378.517 161.861C378.505 163.12 378.781 164.264 379.347 165.294C379.913 166.302 380.684 167.099 381.66 167.685C382.635 168.27 383.731 168.569 384.947 168.581ZM392.574 170.737C392.211 170.733 391.914 170.624 391.681 170.408C391.449 170.171 391.335 169.871 391.338 169.509L391.392 164.037L392.025 161.515L393.908 162.014L393.834 169.533C393.83 169.896 393.71 170.194 393.473 170.426C393.236 170.637 392.937 170.741 392.574 170.737ZM401.91 170.829C401.057 170.821 400.291 170.579 399.613 170.103C398.956 169.627 398.44 168.971 398.064 168.135C397.71 167.3 397.538 166.338 397.549 165.25L397.73 147.011C397.733 146.648 397.843 146.361 398.058 146.15C398.295 145.918 398.595 145.803 398.958 145.807C399.32 145.811 399.607 145.931 399.818 146.168C400.051 146.383 400.165 146.672 400.161 147.035L399.981 165.274C399.972 166.191 400.146 166.94 400.503 167.519C400.881 168.099 401.358 168.392 401.934 168.398L402.734 168.406C403.054 168.409 403.309 168.529 403.498 168.765C403.688 168.98 403.781 169.269 403.778 169.632C403.774 169.995 403.633 170.292 403.353 170.524C403.095 170.735 402.752 170.838 402.326 170.834L401.91 170.829ZM411.7 170.926C411.188 170.921 410.807 170.64 410.556 170.083L403.602 154.941C403.477 154.663 403.469 154.385 403.578 154.109C403.687 153.833 403.903 153.622 404.224 153.476C404.524 153.329 404.813 153.311 405.089 153.42C405.365 153.53 405.577 153.724 405.723 154.002L412.393 168.821L411.081 168.808L417.947 154.124C418.078 153.826 418.293 153.636 418.592 153.554C418.913 153.45 419.223 153.464 419.52 153.595C419.817 153.747 420.018 153.973 420.121 154.273C420.225 154.551 420.212 154.818 420.081 155.073L412.924 170.107C412.663 170.659 412.254 170.932 411.7 170.926ZM430.232 171.27C428.504 171.253 426.972 170.864 425.635 170.104C424.32 169.323 423.285 168.257 422.531 166.906C421.797 165.554 421.439 164.015 421.456 162.287C421.474 160.537 421.841 159.005 422.558 157.689C423.297 156.353 424.299 155.307 425.565 154.551C426.831 153.796 428.286 153.426 429.928 153.442C431.55 153.458 432.954 153.845 434.141 154.604C435.35 155.341 436.278 156.364 436.927 157.672C437.575 158.98 437.891 160.465 437.875 162.129C437.871 162.471 437.762 162.747 437.547 162.958C437.331 163.148 437.053 163.241 436.712 163.238L423.112 163.103L423.133 161.055L436.988 161.192L435.602 162.171C435.636 160.934 435.423 159.822 434.963 158.836C434.504 157.85 433.839 157.076 432.97 156.512C432.122 155.949 431.101 155.662 429.907 155.65C428.691 155.638 427.621 155.915 426.698 156.482C425.775 157.049 425.053 157.842 424.53 158.861C424.03 159.859 423.773 161.008 423.76 162.31C423.747 163.611 424.013 164.765 424.558 165.774C425.124 166.782 425.895 167.579 426.87 168.165C427.846 168.75 428.974 169.049 430.254 169.062C431.022 169.07 431.791 168.949 432.561 168.701C433.353 168.432 433.986 168.096 434.459 167.696C434.696 167.506 434.964 167.413 435.262 167.416C435.561 167.397 435.816 167.475 436.028 167.647C436.303 167.906 436.439 168.185 436.436 168.483C436.454 168.782 436.334 169.037 436.076 169.248C435.366 169.838 434.465 170.331 433.373 170.725C432.282 171.098 431.234 171.28 430.232 171.27ZM457.215 171.377C456.085 171.366 455.074 171.089 454.183 170.547C453.314 170.005 452.628 169.273 452.125 168.351C451.622 167.407 451.377 166.338 451.389 165.143L451.544 149.496C451.547 149.133 451.657 148.836 451.873 148.603C452.11 148.371 452.409 148.257 452.772 148.26C453.135 148.264 453.432 148.384 453.665 148.621C453.897 148.858 454.011 149.158 454.008 149.52L453.853 165.168C453.842 166.256 454.153 167.155 454.786 167.865C455.419 168.554 456.237 168.904 457.24 168.913L458.104 168.922C458.445 168.925 458.721 169.045 458.932 169.282C459.143 169.519 459.247 169.819 459.243 170.181C459.24 170.544 459.109 170.841 458.85 171.074C458.592 171.284 458.271 171.388 457.887 171.384L457.215 171.377ZM449.394 156.579C449.074 156.576 448.808 156.477 448.596 156.283C448.385 156.068 448.281 155.811 448.284 155.512C448.287 155.192 448.396 154.937 448.612 154.747C448.827 154.536 449.095 154.432 449.415 154.435L457.574 154.516C457.894 154.519 458.16 154.629 458.371 154.844C458.583 155.038 458.687 155.295 458.684 155.615C458.681 155.914 458.571 156.169 458.356 156.38C458.141 156.57 457.873 156.663 457.553 156.66L449.394 156.579ZM477.769 171.581C477.407 171.577 477.109 171.457 476.877 171.22C476.645 170.983 476.53 170.694 476.533 170.353L476.616 162.033C476.629 160.71 476.384 159.62 475.88 158.762C475.398 157.903 474.722 157.257 473.851 156.821C473.002 156.386 472.034 156.163 470.946 156.153C469.901 156.142 468.949 156.335 468.092 156.732C467.256 157.129 466.589 157.678 466.092 158.377C465.594 159.076 465.341 159.873 465.332 160.769L463.572 160.752C463.628 159.408 464.002 158.217 464.695 157.179C465.389 156.119 466.303 155.296 467.44 154.71C468.577 154.102 469.838 153.806 471.225 153.819C472.74 153.834 474.091 154.168 475.279 154.819C476.468 155.45 477.397 156.377 478.068 157.599C478.76 158.822 479.097 160.308 479.08 162.057L478.997 170.377C478.994 170.718 478.874 171.005 478.637 171.238C478.4 171.47 478.111 171.584 477.769 171.581ZM464.01 171.445C463.626 171.441 463.318 171.331 463.085 171.115C462.874 170.879 462.771 170.579 462.774 170.216L462.923 155.177C462.927 154.793 463.037 154.496 463.252 154.284C463.489 154.052 463.799 153.938 464.183 153.942C464.546 153.945 464.833 154.065 465.044 154.302C465.276 154.518 465.391 154.818 465.387 155.201L465.238 170.241C465.234 170.603 465.114 170.901 464.877 171.133C464.662 171.344 464.373 171.448 464.01 171.445ZM464.081 164.309C463.697 164.305 463.389 164.185 463.156 163.948C462.945 163.711 462.842 163.411 462.845 163.049L462.997 147.689C463.001 147.305 463.111 147.008 463.326 146.797C463.563 146.564 463.874 146.45 464.258 146.454C464.62 146.457 464.907 146.578 465.118 146.814C465.351 147.03 465.465 147.33 465.461 147.714L465.309 163.073C465.305 163.436 465.185 163.733 464.948 163.966C464.733 164.198 464.443 164.313 464.081 164.309ZM491.871 171.881C490.143 171.864 488.611 171.475 487.275 170.715C485.96 169.934 484.925 168.868 484.17 167.516C483.437 166.165 483.079 164.625 483.096 162.897C483.113 161.148 483.48 159.616 484.197 158.3C484.936 156.963 485.938 155.917 487.205 155.162C488.471 154.406 489.925 154.036 491.568 154.053C493.189 154.069 494.593 154.456 495.781 155.215C496.989 155.952 497.918 156.974 498.566 158.282C499.215 159.59 499.531 161.076 499.514 162.74C499.511 163.081 499.401 163.357 499.186 163.569C498.971 163.759 498.693 163.852 498.351 163.848L484.752 163.714L484.772 161.666L498.627 161.803L497.242 162.781C497.275 161.544 497.062 160.433 496.603 159.447C496.143 158.461 495.479 157.686 494.61 157.123C493.762 156.56 492.741 156.272 491.546 156.261C490.33 156.249 489.261 156.526 488.338 157.093C487.415 157.66 486.692 158.453 486.17 159.472C485.669 160.469 485.413 161.619 485.4 162.92C485.387 164.221 485.653 165.376 486.197 166.384C486.764 167.392 487.534 168.19 488.51 168.775C489.485 169.361 490.613 169.66 491.893 169.673C492.661 169.68 493.43 169.56 494.201 169.312C494.993 169.042 495.626 168.707 496.099 168.306C496.335 168.117 496.603 168.023 496.902 168.026C497.201 168.008 497.456 168.085 497.667 168.258C497.942 168.517 498.078 168.795 498.075 169.094C498.094 169.393 497.974 169.648 497.716 169.858C497.006 170.449 496.105 170.941 495.013 171.336C493.921 171.709 492.874 171.891 491.871 171.881ZM357.624 206.393C357.218 206.389 356.878 206.279 356.603 206.062C356.349 205.825 356.224 205.515 356.228 205.131L356.451 182.636C356.454 182.273 356.575 181.976 356.812 181.743C357.049 181.511 357.349 181.397 357.711 181.4L365.487 181.477C366.767 181.49 367.916 181.779 368.934 182.343C369.974 182.887 370.788 183.631 371.376 184.576C371.986 185.52 372.284 186.611 372.272 187.849C372.261 189.001 371.941 190.022 371.314 190.911C370.686 191.801 369.869 192.476 368.861 192.935C370.287 193.333 371.432 194.07 372.296 195.145C373.16 196.199 373.584 197.537 373.568 199.158C373.554 200.609 373.21 201.885 372.538 202.988C371.866 204.091 370.94 204.956 369.76 205.585C368.602 206.192 367.276 206.488 365.783 206.473L357.624 206.393ZM358.735 204.003L365.807 204.074C366.831 204.084 367.74 203.89 368.533 203.492C369.326 203.095 369.951 202.525 370.406 201.783C370.861 201.041 371.094 200.158 371.104 199.134C371.114 198.174 370.898 197.34 370.457 196.631C370.016 195.901 369.403 195.341 368.618 194.949C367.832 194.536 366.928 194.324 365.904 194.314L358.832 194.244L358.735 204.003ZM358.856 191.844L365.383 191.909C366.663 191.921 367.723 191.569 368.562 190.852C369.401 190.135 369.827 189.126 369.84 187.825C369.853 186.545 369.446 185.57 368.621 184.9C367.796 184.231 366.743 183.89 365.463 183.877L358.935 183.812L358.856 191.844ZM381.44 206.628C380.587 206.62 379.822 206.378 379.144 205.902C378.487 205.426 377.971 204.77 377.595 203.934C377.241 203.099 377.069 202.137 377.08 201.049L377.26 182.81C377.264 182.447 377.373 182.16 377.589 181.949C377.826 181.717 378.126 181.602 378.488 181.606C378.851 181.61 379.138 181.73 379.349 181.967C379.581 182.182 379.696 182.471 379.692 182.834L379.511 201.073C379.502 201.99 379.676 202.739 380.033 203.318C380.411 203.898 380.889 204.191 381.465 204.197L382.265 204.205C382.584 204.208 382.839 204.328 383.029 204.564C383.219 204.779 383.312 205.068 383.308 205.431C383.305 205.794 383.163 206.091 382.884 206.323C382.625 206.534 382.283 206.637 381.856 206.633L381.44 206.628ZM393.213 206.905C391.506 206.888 389.985 206.489 388.648 205.708C387.312 204.927 386.267 203.86 385.512 202.509C384.757 201.157 384.388 199.628 384.405 197.921C384.422 196.194 384.822 194.661 385.603 193.325C386.384 191.989 387.451 190.943 388.802 190.189C390.154 189.434 391.683 189.065 393.389 189.082C395.096 189.099 396.607 189.498 397.922 190.279C399.258 191.06 400.304 192.127 401.058 193.478C401.813 194.83 402.192 196.37 402.196 198.098C402.18 199.804 401.77 201.326 400.967 202.662C400.186 203.998 399.12 205.044 397.768 205.798C396.438 206.553 394.919 206.922 393.213 206.905ZM393.235 204.665C394.472 204.677 395.584 204.4 396.571 203.834C397.558 203.268 398.334 202.486 398.899 201.489C399.463 200.492 399.752 199.354 399.765 198.074C399.777 196.794 399.511 195.65 398.967 194.642C398.422 193.612 397.662 192.804 396.686 192.219C395.711 191.633 394.604 191.334 393.367 191.322C392.13 191.31 391.018 191.587 390.031 192.153C389.044 192.719 388.257 193.511 387.671 194.53C387.107 195.527 386.818 196.665 386.805 197.945C386.793 199.225 387.059 200.369 387.603 201.377C388.169 202.386 388.94 203.183 389.916 203.768C390.891 204.354 391.998 204.653 393.235 204.665ZM414.388 207.115C412.681 207.098 411.16 206.699 409.824 205.918C408.487 205.136 407.442 204.07 406.687 202.718C405.933 201.367 405.564 199.838 405.581 198.131C405.598 196.403 405.997 194.871 406.778 193.535C407.559 192.199 408.626 191.153 409.977 190.398C411.329 189.644 412.858 189.275 414.565 189.292C416.271 189.309 417.782 189.708 419.097 190.489C420.433 191.27 421.479 192.336 422.233 193.688C422.988 195.039 423.367 196.579 423.372 198.307C423.355 200.014 422.945 201.535 422.142 202.871C421.361 204.208 420.295 205.253 418.943 206.008C417.613 206.763 416.095 207.132 414.388 207.115ZM414.41 204.875C415.647 204.887 416.76 204.61 417.747 204.044C418.734 203.478 419.509 202.696 420.074 201.699C420.639 200.702 420.927 199.563 420.94 198.283C420.952 197.003 420.686 195.859 420.142 194.851C419.597 193.822 418.837 193.014 417.862 192.429C416.886 191.843 415.78 191.544 414.542 191.532C413.305 191.519 412.193 191.796 411.206 192.363C410.219 192.929 409.432 193.721 408.846 194.739C408.282 195.737 407.993 196.875 407.98 198.155C407.968 199.435 408.234 200.579 408.778 201.587C409.345 202.595 410.115 203.392 411.091 203.978C412.067 204.564 413.173 204.863 414.41 204.875ZM435.563 207.325C433.878 207.308 432.367 206.909 431.031 206.128C429.695 205.325 428.639 204.248 427.863 202.896C427.108 201.545 426.739 200.016 426.756 198.309C426.773 196.624 427.161 195.113 427.921 193.776C428.702 192.44 429.747 191.394 431.056 190.639C432.365 189.863 433.841 189.483 435.484 189.499C436.913 189.513 438.201 189.835 439.346 190.465C440.492 191.074 441.412 191.883 442.107 192.893L442.2 183.485C442.203 183.101 442.324 182.804 442.561 182.593C442.798 182.36 443.097 182.246 443.46 182.25C443.823 182.253 444.12 182.373 444.352 182.61C444.585 182.826 444.699 183.126 444.696 183.51L444.546 198.613C444.487 200.277 444.056 201.776 443.253 203.113C442.472 204.428 441.406 205.462 440.054 206.217C438.724 206.972 437.227 207.341 435.563 207.325ZM435.585 205.085C436.823 205.097 437.924 204.82 438.89 204.253C439.877 203.666 440.653 202.873 441.217 201.876C441.803 200.879 442.103 199.741 442.115 198.461C442.128 197.202 441.851 196.069 441.285 195.061C440.74 194.031 439.98 193.224 439.005 192.638C438.051 192.053 436.955 191.754 435.718 191.741C434.502 191.729 433.4 192.006 432.413 192.573C431.426 193.139 430.64 193.931 430.054 194.949C429.468 195.946 429.168 197.074 429.156 198.333C429.143 199.613 429.42 200.757 429.986 201.765C430.552 202.773 431.323 203.581 432.298 204.188C433.274 204.774 434.369 205.073 435.585 205.085Z" fill="black"/>
<ellipse cx="164.904" cy="169.199" rx="162.801" ry="167.235" transform="rotate(0.567539 164.904 169.199)" fill="#340808"/>
<path d="M68.3097 59.3812C96.7657 33.9062 165.329 7.02826 165.329 7.02826C165.329 7.02826 154.389 64.8038 164.397 101.102C171.363 126.367 184.509 139.261 194.791 164.126C211.339 204.139 246.551 228.742 226.505 267.932C213.487 293.38 162.192 323.745 162.192 323.745C162.192 323.745 93.9784 286.472 66.3631 255.892C32.1816 218.041 19.0786 191.726 22.6195 148.831C25.6418 112.218 34.5559 89.5989 68.3097 59.3812Z" stroke="#6A3434"/>
<path d="M60.3567 50.7596C83.8115 29.9163 138.209 9.99703 138.209 9.99703C138.209 9.99703 126.249 60.1496 131.723 92.5666C135.533 115.13 153.238 107.863 159.624 130.252C169.901 166.283 210.604 187.923 192.778 221.263C181.202 242.913 169.528 277.016 169.528 277.016C169.528 277.016 66.1787 251.579 46.8082 223.238C22.8319 188.159 14.3649 164.344 19.7196 126.861C24.2901 94.8688 32.5352 75.4833 60.3567 50.7596Z" stroke="#B56D6D"/>
<path d="M270.346 77.7225C255.626 49.1362 217.092 16.7004 217.092 16.7004C217.092 16.7004 218.484 78.3685 209.282 116.116C202.878 142.389 190.457 130.899 182.108 156.553C168.673 197.838 134.187 217.11 142.668 259.685C148.175 287.331 151.831 329.832 151.831 329.832C151.831 329.832 234.831 316.059 254.033 285.391C277.802 247.431 287.963 220.411 289.664 174.896C291.116 136.047 287.806 111.631 270.346 77.7225Z" stroke="#9A0D0D"/>
<path d="M271.973 63.5311C247.687 36.5035 188.518 7.25791 188.518 7.25791C188.518 7.25791 196.947 67.5407 187.549 105.095C181.007 131.234 169.322 144.393 159.901 170.052C144.741 211.346 113.627 236.262 130.333 277.391C141.182 304.099 185.255 336.643 185.255 336.643C185.255 336.643 245.333 299.177 269.949 267.902C300.416 229.191 312.319 202.077 310.049 157.406C308.111 119.279 300.78 95.5906 271.973 63.5311Z" stroke="#D25252"/>
<line x1="352.817" y1="226.494" x2="517.638" y2="228.127" stroke="#E39999" stroke-width="5"/>
<line x1="352.789" y1="229.26" x2="517.61" y2="230.893" stroke="#461919"/>
</svg>
